<svg height="511pt" viewBox="0 0 511 511.99964" width="511pt" xmlns="http://www.w3.org/2000/svg"><path d="m429.023438 297.738281c0 118.332031-95.929688 214.257813-214.261719 214.257813s-214.261719-95.925782-214.261719-214.257813c0-118.335937 95.929688-214.261719 214.261719-214.261719s214.261719 95.925782 214.261719 214.261719zm0 0" fill="#0396fd"/><path d="m429.023438 297.742188c0 118.332031-95.925782 214.257812-214.257813 214.257812-34.636719 0-67.359375-8.214844-96.308594-22.816406 20.804688 6.738281 43.003907 10.378906 66.050781 10.378906 118.332032 0 214.257813-95.921875 214.257813-214.257812 0-83.71875-48.019531-156.230469-118.027344-191.472657 86.050781 27.808594 148.285157 108.589844 148.285157 203.910157zm0 0" fill="#0077f0"/><path d="m369.605469 297.738281c0 85.515625-69.328125 154.84375-154.84375 154.84375-85.519531 0-154.84375-69.328125-154.84375-154.84375 0-85.519531 69.324219-154.84375 154.84375-154.84375 85.515625 0 154.84375 69.324219 154.84375 154.84375zm0 0" fill="#e7e7e7"/><path d="m369.605469 297.742188c0 85.511718-69.328125 154.839843-154.839844 154.839843-30.621094 0-59.167969-8.886719-83.191406-24.222656 16.824219 6.265625 35.03125 9.683594 54.03125 9.683594 85.523437 0 154.847656-69.324219 154.847656-154.835938 0-54.902343-28.574219-103.136719-71.65625-130.625 58.871094 21.921875 100.808594 78.648438 100.808594 145.160157zm0 0" fill="#cecece"/><path d="m309.890625 297.738281c0 52.535157-42.59375 95.125-95.128906 95.125-52.539063 0-95.128907-42.589843-95.128907-95.125 0-52.539062 42.589844-95.128906 95.128907-95.128906 52.535156 0 95.128906 42.589844 95.128906 95.128906zm0 0" fill="#64dcfc"/><path d="m309.886719 297.742188c0 52.535156-42.582031 95.121093-95.121094 95.121093-26.300781 0-50.105469-10.664062-67.324219-27.914062 9.246094 3 19.121094 4.628906 29.367188 4.628906 52.539062 0 95.132812-42.597656 95.132812-95.132813 0-26.246093-10.621094-50.007812-27.816406-67.214843 38.164062 12.367187 65.761719 48.210937 65.761719 90.511719zm0 0" fill="#00d1fc"/><path d="m260.929688 297.738281c0 25.496094-20.671876 46.167969-46.167969 46.167969-25.5 0-46.167969-20.671875-46.167969-46.167969 0-25.5 20.667969-46.167969 46.167969-46.167969 25.496093 0 46.167969 20.667969 46.167969 46.167969zm0 0" fill="#838383"/><path d="m260.925781 297.742188c0 25.488281-20.660156 46.160156-46.160156 46.160156-14.382813 0-27.226563-6.574219-35.679687-16.878906 4.5625 1.527343 9.445312 2.34375 14.523437 2.34375 25.5 0 46.171875-20.660157 46.171875-46.160157 0-11.128906-3.9375-21.320312-10.492188-29.292969 18.375 6.082032 31.636719 23.398438 31.636719 43.828126zm0 0" fill="#5a5a5a"/><path d="m360.734375 121.492188-9.554687-59.457032c-.289063-1.808594.304687-3.648437 1.597656-4.941406l55.417968-55.414062c3.347657-3.351563 9.082032-1.398438 9.695313 3.296874l6.847656 52.511719zm0 0" fill="#ff5770"/><path d="m390.882812 153.054688 59.453126 9.554687c1.808593.292969 3.648437-.304687 4.941406-1.597656l55.417968-55.414063c3.347657-3.351562 1.398438-9.085937-3.300781-9.695312l-52.507812-6.851563zm0 0" fill="#ff5770"/><path d="m510.691406 105.59375-55.414062 55.417969c-1.296875 1.292969-3.132813 1.890625-4.945313 1.597656l-15.84375-2.546875 65.171875-65.171875 7.734375 1.007813c4.695313.613281 6.648438 6.347656 3.296875 9.695312zm0 0" fill="#ff435f"/><path d="m205.851562 307.765625c-8.441406-8.445313-8.453124-22.132813-.019531-30.589844l222.523438-223.261719c8.449219-8.476562 22.171875-8.484374 30.632812-.023437 8.445313 8.445313 8.457031 22.132813.023438 30.589844l-222.527344 223.261719c-8.449219 8.476562-22.167969 8.484374-30.632813.023437zm0 0" fill="#e7e7e7"/><path d="m465.332031 69.195312c0 5.53125-2.109375 11.058594-6.320312 15.285157l-222.523438 223.269531c-8.457031 8.464844-22.167969 8.476562-30.632812.019531-1.660157-1.660156-2.992188-3.519531-4.003907-5.507812 6.851563 1.351562 14.226563-.636719 19.539063-5.949219l222.523437-223.269531c4.210938-4.222657 6.320313-9.753907 6.320313-15.285157 0-3.363281-.78125-6.738281-2.351563-9.804687 4.066407.800781 7.960938 2.792969 11.105469 5.9375 4.222657 4.222656 6.34375 9.761719 6.34375 15.304687zm0 0" fill="#cecece"/></svg>